<svg width="108" height="26" viewBox="0 0 108 26" fill="none" xmlns="http://www.w3.org/2000/svg">
<path fill-rule="evenodd" clip-rule="evenodd" d="M24.9775 15.1278C25.0961 14.4363 25.1579 13.7253 25.1579 13C25.1579 6.09644 19.5615 0.5 12.6579 0.5C8.47185 0.5 4.7664 2.55766 2.49781 5.71671C3.76552 5.54137 5.01897 5.62264 6.26113 5.93808C9.39452 6.73379 12.0596 8.9669 14.2202 10.7857L14.3922 10.9306C16.6798 12.857 18.5379 14.4217 20.5308 15.1628C21.8223 15.6431 23.2368 15.7956 24.9775 15.1278ZM22.6009 20.5765C20.3171 23.5691 16.713 25.5 12.6579 25.5C5.75434 25.5 0.157898 19.9036 0.157898 13C0.157898 12.6428 0.172878 12.2892 0.202245 11.9396C2.26575 10.528 3.78813 10.4688 5.03046 10.7843C6.86155 11.2493 8.66432 12.6444 11 14.6108C11.1387 14.7275 11.2794 14.8464 11.4222 14.9671L11.4222 14.9671C13.4727 16.7 15.9504 18.794 18.788 19.8493C20.0143 20.3053 21.285 20.564 22.6009 20.5765Z" fill="#3CDDF3"/>
<path d="M39.5637 20.4032C38.4354 20.4032 37.4586 20.1908 36.6334 19.7661C35.8251 19.3413 35.2104 18.7892 34.7894 18.1096C34.3684 17.413 34.1579 16.6825 34.1579 15.9179V15.765H37.5681V15.9179C37.5681 16.3767 37.7449 16.7844 38.0985 17.1412C38.4522 17.498 38.9658 17.6764 39.6394 17.6764C40.1952 17.6764 40.6414 17.5489 40.9782 17.2941C41.3319 17.0223 41.5087 16.657 41.5087 16.1983C41.5087 15.7905 41.3572 15.4677 41.054 15.2299C40.7509 14.992 40.372 14.8391 39.9173 14.7712L38.4017 14.4653C37.4081 14.2785 36.5071 13.8792 35.6988 13.2676C34.8905 12.656 34.4863 11.73 34.4863 10.4898C34.4863 9.2156 34.9494 8.22171 35.8756 7.50816C36.8018 6.77761 37.9891 6.41234 39.4374 6.41234C40.4983 6.41234 41.4161 6.60771 42.1908 6.99847C42.9654 7.38923 43.5548 7.90741 43.959 8.55301C44.3632 9.18162 44.5652 9.8612 44.5652 10.5917V10.6937H41.1551V10.6172C41.1551 10.2095 41.0035 9.83571 40.7004 9.49592C40.3973 9.13914 39.9341 8.96075 39.311 8.96075C38.789 8.96075 38.368 9.09667 38.048 9.3685C37.7281 9.64033 37.5681 9.99711 37.5681 10.4388C37.5681 10.8466 37.7281 11.1694 38.048 11.4072C38.3848 11.6451 38.7974 11.8065 39.2858 11.8914L40.953 12.2227C42.0308 12.4606 42.9401 12.8938 43.6811 13.5224C44.4221 14.134 44.7926 15.009 44.7926 16.1473C44.7926 16.9968 44.5652 17.7443 44.1106 18.3899C43.6559 19.0355 43.0243 19.5367 42.216 19.8935C41.4245 20.2333 40.5404 20.4032 39.5637 20.4032Z" fill="white"/>
<path d="M53.991 20.4032C52.8627 20.4032 51.9786 20.1398 51.3386 19.6132C50.6987 19.0865 50.2272 18.5088 49.924 17.8802H49.7219V25.5H46.2107V6.74363H49.7219V8.83333H49.924C50.1935 8.25569 50.6482 7.71203 51.2881 7.20234C51.928 6.67567 52.8206 6.41234 53.9657 6.41234C55.6666 6.41234 56.9717 7.04944 57.8811 8.32365C58.8073 9.59786 59.2704 11.3053 59.2704 13.446C59.2704 15.5357 58.8073 17.2176 57.8811 18.4918C56.9717 19.7661 55.675 20.4032 53.991 20.4032ZM52.7279 17.5999C53.7384 17.5999 54.4878 17.1922 54.9761 16.3767C55.4813 15.5612 55.734 14.5758 55.734 13.4205C55.734 12.2992 55.4813 11.3393 54.9761 10.5408C54.4878 9.72528 53.7384 9.31753 52.7279 9.31753C51.7344 9.31753 50.985 9.72528 50.4798 10.5408C49.9745 11.3563 49.7219 12.3247 49.7219 13.446C49.7219 14.5843 49.9745 15.5612 50.4798 16.3767C50.985 17.1922 51.7344 17.5999 52.7279 17.5999Z" fill="white"/>
<path d="M66.9526 20.4032C65.5548 20.4032 64.376 20.0889 63.4161 19.4602C62.4731 18.8146 61.7658 17.9652 61.2942 16.9118C60.8227 15.8585 60.5869 14.7032 60.5869 13.446C60.5869 12.1888 60.8143 11.0335 61.269 9.98012C61.7405 8.90979 62.4562 8.05182 63.4161 7.40622C64.376 6.76062 65.5548 6.43782 66.9526 6.43782C68.3503 6.43782 69.5292 6.76062 70.4891 7.40622C71.449 8.03483 72.1647 8.87581 72.6362 9.92915C73.1077 10.9825 73.3435 12.1378 73.3435 13.395C73.3435 14.6522 73.1077 15.816 72.6362 16.8863C72.1647 17.9397 71.449 18.7892 70.4891 19.4348C69.5292 20.0804 68.3503 20.4032 66.9526 20.4032ZM66.9526 17.5489C67.9293 17.5489 68.6619 17.1582 69.1503 16.3767C69.6555 15.5782 69.9081 14.5843 69.9081 13.395C69.9081 12.2057 69.6555 11.2288 69.1503 10.4643C68.6619 9.68281 67.9293 9.29205 66.9526 9.29205C65.9759 9.29205 65.2433 9.68281 64.7549 10.4643C64.2666 11.2288 64.0224 12.2057 64.0224 13.395C64.0224 14.5843 64.2666 15.5782 64.7549 16.3767C65.2601 17.1582 65.9927 17.5489 66.9526 17.5489Z" fill="white"/>
<path d="M75.0338 6.74363H78.4945V8.8843H78.6713C78.8902 8.28967 79.2944 7.78848 79.8838 7.38073C80.4732 6.956 81.2311 6.74363 82.1573 6.74363C82.5109 6.74363 82.814 6.77761 83.0667 6.84557L82.9151 10.0821C82.4941 9.96313 82.0478 9.90367 81.5763 9.90367C80.5322 9.90367 79.7575 10.184 79.2523 10.7446C78.7471 11.2883 78.4945 12.1972 78.4945 13.4715V20.1993H75.0338V6.74363Z" fill="white"/>
<path d="M88.8189 9.49592V15.4847C88.8189 16.0793 88.8442 16.5211 88.8947 16.8099C88.9621 17.0987 89.1305 17.3281 89.3999 17.498C89.6694 17.6679 90.1072 17.7528 90.7135 17.7528C91.0671 17.7528 91.4292 17.7188 91.7997 17.6509V20.0974C91.6144 20.1313 91.2776 20.1738 90.7893 20.2248C90.3177 20.2757 89.8546 20.3012 89.3999 20.3012C88.1706 20.3012 87.2528 20.1228 86.6465 19.7661C86.0571 19.3923 85.6866 18.9336 85.5351 18.3899C85.3835 17.8293 85.3077 17.1157 85.3077 16.2492V9.49592H83.0848V6.74363H85.333V2.36035H88.8189V6.74363H91.7997V9.49592H88.8189Z" fill="white"/>
<path d="M93.9695 6.74363H97.4555V20.1993H93.9695V6.74363ZM95.6873 4.42457C95.1315 4.42457 94.6684 4.23768 94.2979 3.86391C93.9274 3.47316 93.7422 3.00595 93.7422 2.46228C93.7422 1.90163 93.9274 1.43442 94.2979 1.06065C94.6684 0.686884 95.1315 0.5 95.6873 0.5C96.243 0.5 96.7061 0.695379 97.0766 1.08614C97.4471 1.45991 97.6323 1.91862 97.6323 2.46228C97.6323 3.00595 97.4471 3.47316 97.0766 3.86391C96.7061 4.23768 96.243 4.42457 95.6873 4.42457Z" fill="white"/>
<path d="M104.861 9.49592V15.4847C104.861 16.0793 104.887 16.5211 104.937 16.8099C105.005 17.0987 105.173 17.3281 105.442 17.498C105.712 17.6679 106.15 17.7528 106.756 17.7528C107.11 17.7528 107.472 17.7188 107.842 17.6509V20.0974C107.657 20.1313 107.32 20.1738 106.832 20.2248C106.36 20.2757 105.897 20.3012 105.442 20.3012C104.213 20.3012 103.295 20.1228 102.689 19.7661C102.1 19.3923 101.729 18.9336 101.578 18.3899C101.426 17.8293 101.35 17.1157 101.35 16.2492V9.49592H99.1272V6.74363H101.375V2.36035H104.861V6.74363H107.842V9.49592H104.861Z" fill="white"/>
</svg>
